<?xml version="1.0" encoding="UTF-8"?>
<!-- Do not edit this file with editors other than draw.io -->
<!DOCTYPE svg PUBLIC "-//W3C//DTD SVG 1.1//EN" "http://www.w3.org/Graphics/SVG/1.1/DTD/svg11.dtd">
<svg xmlns="http://www.w3.org/2000/svg" xmlns:xlink="http://www.w3.org/1999/xlink" version="1.1" viewBox="90 90 320 320" >
  <svg xmlns="http://www.w3.org/2000/svg" width="512" height="512" viewBox="0 0 512 512">
    <rect data-uid="o_fegfn71ca_7" data-fl-background="" x="0" y="0" width="512" height="512" fill="#fff"></rect>
    <g transform="matrix(3.6371116990014287, 0, 0, 3.418687817956319, 165.07222053228935, 117.50989651289038)" data-uid="o_fegfn71ca_35" fill="#fffff">
      <path d="m45.0766 13.5c-1.8063-3.1036-5.9172-4.3985-11.0567-3.973-2.1984-4.6464-5.3995-7.527-9.0199-7.527s-6.8215 2.8806-9.0199 7.527c-5.1392-.4256-9.2499.8692-11.0567 3.973-1.8081 3.1075-.8788 7.2927 2.07 11.5-2.9488 4.2073-3.8781 8.3925-2.07 11.5 1.5857 2.7246 4.9382 4.0688 9.211 4.0688.6 0 1.2188-.0275 1.8527-.0805 2.1982 4.6376 5.3964 7.5117 9.0129 7.5117s6.8147-2.874 9.0129-7.5117c.6339.053 1.2527.0805 1.8527.0805 4.2718 0 7.6253-1.3442 9.211-4.0688 1.8081-3.1075.8788-7.2927-2.07-11.5 2.9488-4.2073 3.8781-8.3925 2.07-11.5zm-9.1343-2.0396c3.4943 0 6.1981.9947 7.3881 3.0396 1.3113 2.2537.5737 5.4496-1.6301 8.7916a34.64946 34.64946 0 0 0 -5.1006-4.9307 34.39762 34.39762 0 0 0 -1.7463-6.8521c.3659-.02.7382-.0484 1.0889-.0484zm-5.9027 22.1998a41.74744 41.74744 0 0 1 -5.0403 2.4463 41.72411 41.72411 0 0 1 -5.0389-2.4463 41.6206 41.6206 0 0 1 -4.6552-3.1072 40.3116 40.3116 0 0 1 0-11.106 40.77826 40.77826 0 0 1 9.695-5.5489 40.78618 40.78618 0 0 1 9.6946 5.5489 40.93587 40.93587 0 0 1 .3843 5.553 40.93587 40.93587 0 0 1 -.3843 5.553 41.6206 41.6206 0 0 1 -4.6552 3.1072zm4.1588-.261a30.94389 30.94389 0 0 1 -1.464 4.8922 31.58414 31.58414 0 0 1 -5.0055-1.1892c1.1037-.5186 2.2112-1.0753 3.3186-1.7096 1.1061-.6337 2.1473-1.3051 3.1509-1.9934zm-11.9283 3.7026a31.58786 31.58786 0 0 1 -5.0048 1.1889 30.9383 30.9383 0 0 1 -1.4637-4.8915c1.0036.6883 2.0448 1.3597 3.1509 1.9934 1.1071.6341 2.2142 1.1907 3.3176 1.7092zm-9.2151-8.4116a31.218 31.218 0 0 1 -3.5234-3.6902 31.218 31.218 0 0 1 3.5234-3.6902c-.0977 1.1993-.15 2.4309-.15 3.6902s.0523 2.4909.15 3.6902zm2.7466-12.0894a30.96161 30.96161 0 0 1 1.4592-4.8814 31.44122 31.44122 0 0 1 4.9984 1.1814c-1.0997.5172-2.2033 1.0746-3.3067 1.7066-1.1061.6337-2.1473 1.3051-3.1509 1.9934zm11.9393-3.6999a31.45433 31.45433 0 0 1 4.9983-1.1815 30.96161 30.96161 0 0 1 1.4592 4.8814c-1.0036-.6883-2.0448-1.3597-3.1509-1.9934-1.1033-.6319-2.207-1.1894-3.3066-1.7065zm9.2041 8.4089a31.218 31.218 0 0 1 3.5234 3.6902 31.218 31.218 0 0 1 -3.5234 3.6902c.0977-1.1993.15-2.4309.15-3.6902s-.0523-2.4909-.15-3.6902zm-11.945-17.3098c2.6233 0 5.0442 2.2318 6.8595 5.7964a34.99523 34.99523 0 0 0 -6.8596 1.9191 34.99458 34.99458 0 0 0 -6.8593-1.9191c1.8152-3.5646 4.2361-5.7964 6.8594-5.7964zm-18.3304 10.5c1.19-2.0454 3.8938-3.0396 7.3881-3.0396.3507 0 .723.0284 1.0889.0484a34.39762 34.39762 0 0 0 -1.7463 6.8521 34.64946 34.64946 0 0 0 -5.1006 4.9307c-2.2038-3.342-2.9414-6.5379-1.6301-8.7916zm0 21c-1.3113-2.2537-.5737-5.4496 1.6301-8.7916a34.64946 34.64946 0 0 0 5.1006 4.9307 34.3799 34.3799 0 0 0 1.7479 6.8562c-4.0145.2204-7.1687-.744-8.4786-2.9953zm18.3304 10.5c-2.6213 0-5.0405-2.2285-6.8553-5.7885a35.17337 35.17337 0 0 0 6.8551-1.9354 35.17149 35.17149 0 0 0 6.8554 1.9355c-1.8147 3.5599-4.234 5.7884-6.8552 5.7884zm18.3304-10.5c-1.3102 2.2521-4.4646 3.2165-8.4789 2.9961a34.38431 34.38431 0 0 0 1.7482-6.857 34.64946 34.64946 0 0 0 5.1006-4.9307c2.2038 3.342 2.9414 6.5379 1.6301 8.7916z" fill="rgba(29, 137, 231, 0.3208955223880597)" transform="matrix(1, 0, 0, 1, 0, 0)" data-uid="o_fegfn71ca_32"></path>
      <path d="m31.4277 19.5562-4.9277-2.8448a3.00826 3.00826 0 0 0 -3 0l-4.9277 2.8448a3.00935 3.00935 0 0 0 -1.5 2.5986v5.6904a3.00935 3.00935 0 0 0 1.5 2.5986l4.9277 2.8448a3.00989 3.00989 0 0 0 3 0l4.9277-2.8448a3.00935 3.00935 0 0 0 1.5-2.5986v-5.6904a3.00935 3.00935 0 0 0 -1.5-2.5986zm-6.4277 9.4438a4 4 0 1 1 4-4 4.00422 4.00422 0 0 1 -4 4z" fill="rgba(29, 137, 231, 0.3208955223880597)" transform="matrix(1, 0, 0, 1, 0, 0)" data-uid="o_fegfn71ca_33"></path>
    </g>
    <g data-icon="" transform="matrix(0.38167938899797615, 0, 0, 0.38167938899797615, 158.29002833593015, 105.26717000847387)" data-uid="o_fegfn71ca_8">
      <path d="m81 392v-272c0-55.228 44.771-100 100-100h-61c-55.229 0-100 44.772-100 100v272c0 55.229 44.771 100 100 100h61c-55.229 0-100-44.771-100-100z" fill="#cee1f2" data-uid="o_fegfn71ca_9"></path>
      <path d="m392 512h-272c-66.168 0-120-53.832-120-120v-272c0-66.168 53.832-120 120-120h272c66.168 0 120 53.832 120 120v272c0 66.168-53.832 120-120 120zm-272-472c-44.112 0-80 35.888-80 80v272c0 44.112 35.888 80 80 80h272c44.112 0 80-35.888 80-80v-272c0-44.112-35.888-80-80-80zm138.647 389.995c21.801-.327 38.876-16.842 41.546-40.173l6.833-57.46c1.304-10.969-6.53-20.917-17.499-22.222-10.962-1.307-20.917 6.53-22.222 17.499l-6.838 57.504c-.004.038-.009.075-.013.113-.314 2.777-1.305 4.728-2.408 4.745-1.187-.015-2.061-2.161-2.414-4.294l-27.417-260.633c-.005-.052-.011-.104-.017-.156-2.33-20.595-18.428-35.359-39.147-35.902-20.714-.581-37.57 13.354-40.978 33.799-.066.399-.121.801-.163 1.203l-15.61 148.932c-.198.906-.687 1.965-2.762 2.047-2.336.089-2.764-1.205-3.002-2.146l-7.055-30.375c-2.499-10.76-13.248-17.458-24.006-14.957-10.759 2.499-17.456 13.247-14.957 24.006l7.093 30.542c.023.1.047.201.072.3 4.972 20.002 22.807 33.401 43.423 32.599 20.595-.809 37.346-15.573 40.734-35.903.066-.399.121-.801.163-1.203l15.599-148.824c.001-.003.001-.007.002-.01.239-.041.552-.033.789.021.018.084.036.19.052.319l27.455 260.987c.026.251.058.502.093.752 3.304 22.994 20.524 38.898 41.998 38.897.218-.002.439-.003.656-.007z" fill="#1428bf" data-uid="o_fegfn71ca_10"></path>
      <path d="m382.657 315c-.586 0-1.174-.012-1.765-.035-20.532-.807-37.243-15.484-40.702-35.719l-15.665-85.542c-.02-.105-.037-.21-.055-.315-.025-.151-.053-.271-.077-.365-.237-.041-.551-.032-.788.021-.02.095-.04.217-.058.369-.004.038-.009.075-.013.113l-7.472 62.835c-1.304 10.968-11.253 18.807-22.222 17.498-10.969-1.304-18.803-11.253-17.499-22.222l7.468-62.795c2.36-20.556 18.445-35.285 39.139-35.829 20.66-.549 37.472 13.275 40.947 33.622l15.663 85.536c.02.105.037.21.055.315.16.961.402 2.414 2.848 2.51 2.312.084 2.764-1.203 3.002-2.144l7.055-30.377c2.498-10.759 13.243-17.458 24.006-14.958 10.759 2.499 17.456 13.246 14.957 24.005l-7.093 30.542c-.023.101-.047.201-.072.301-4.829 19.43-21.815 32.634-41.659 32.634z" fill="#df5cf0" data-uid="o_fegfn71ca_11"></path>
    </g>
    <path text-anchor="middle" offset="0.5" fill="#a745b4" space="preserve" font-scale="contain" font-size="48" font-family="Fugaz One" text="ASR" font-style="normal" font-weight="400" data-fl-textpath="" transform="matrix(1.5267176666863786, 0, 0, 1.5267176666863786, 255.4610735091992, 390.2442803561064)" data-uid="o_fegfn71ca_12" d="M-19.392 0L-28.512 0L-28.222-7.54L-36.242-7.54L-38.592 0L-47.762 0L-35.422-34.56L-19.582-34.56L-19.392 0ZM-27.452-26.16L-30.482-26.16L-34.272-13.97L-27.982-13.97L-27.452-26.16ZM-6-9.84L-6-9.84Q-6-6.53 -1.22-6.53Q 3.55-6.53  3.55-9.5L 3.55-9.5Q 3.55-11.09  1.92-12.1Q 0.29-13.1 -2.04-13.78Q-4.37-14.45 -6.7-15.34Q-9.02-16.22 -10.66-18.12Q-12.29-20.02 -12.29-22.85L-12.29-22.85Q-12.29-34.9  3.22-34.9L 3.22-34.9Q 8.88-34.9  11.78-32.76Q 14.69-30.62  14.69-26.83L 14.69-26.83Q 14.69-25.44  14.33-24.17Q 13.97-22.9  13.58-22.37L 13.58-22.37L 13.2-21.79L 4.7-21.79Q 5.76-22.9  5.76-24.58L 5.76-24.58Q 5.76-27.7  1.68-27.7L 1.68-27.7Q-3.46-27.7 -3.46-24.43L-3.46-24.43Q-3.46-22.8 -1.82-21.84Q-0.19-20.88  2.14-20.33Q 4.46-19.78  6.82-18.96Q 9.17-18.14  10.8-16.25Q 12.43-14.35  12.43-11.33L 12.43-11.33Q 12.43-5.23  8.78-2.28Q 5.14 0.67 -2.45 0.67Q-10.03 0.67 -12.82-2.02L-12.82-2.02Q-14.88-4.03 -14.88-7.58L-14.88-7.58Q-14.88-8.93 -14.59-10.51L-14.59-10.51L-14.45-11.28L-5.81-11.28L-5.9-10.7Q-6-10.22 -6-9.84ZM 22.034-34.56L 35.954-34.56Q 41.424-34.56  43.724-32.16L 43.724-32.16Q 45.454-30.34  45.454-27.55L 45.454-27.55Q 45.454-26.59  45.264-25.54L 45.264-25.54L 44.594-21.79Q 44.014-18.67  42.604-16.75Q 41.184-14.83  39.454-14.02L 39.454-14.02L 43.824 0L 34.124 0L 30.094-12.91L 27.124-12.91L 25.154 0L 15.934 0L 22.034-34.56ZM 32.924-27.07L 32.924-27.07L 29.324-27.07L 28.084-18.72L 31.444-18.72Q 33.984-18.72  35.084-19.94Q 36.194-21.17  36.194-23.18L 36.194-23.18Q 36.194-27.07  32.924-27.07Z" style=""></path>
  </svg>
</svg>