
<svg width="365px" height="501px" viewBox="0 0 365 501" version="1.1" xmlns="http://www.w3.org/2000/svg" xmlns:xlink="http://www.w3.org/1999/xlink">
    <g id="页面-1" stroke="none" stroke-width="1" fill="none" fill-rule="evenodd">
        <g id="logo" fill-rule="nonzero">
            <g id="编组" transform="translate(27, 27)">
                <rect id="矩形" fill="#FFFFFF" x="0" y="0" width="311" height="311"></rect>
                <path d="M287.690017,80.75 C275.346974,60.8464783 247.255841,52.5422283 212.135946,55.2709783 C197.113555,25.473413 175.239385,7 150.5,7 C125.760615,7 103.886445,25.473413 88.8640541,55.2709783 C53.7462087,52.541587 25.6564424,60.8451957 13.3099833,80.75 C0.954640767,100.678533 7.30485358,127.518402 27.4549747,154.5 C7.30485358,181.481598 0.954640767,208.321467 13.3099833,228.25 C24.1455934,245.722978 47.0543295,254.343391 76.2517784,254.343391 C80.3517759,254.343391 84.58024,254.167033 88.9118874,253.827141 C103.932912,283.568272 125.787265,302 150.5,302 C175.212735,302 197.067088,283.568913 212.088113,253.827141 C216.41976,254.167033 220.648224,254.343391 224.748222,254.343391 C253.938837,254.343391 276.854407,245.722978 287.690017,228.25 C300.045359,208.321467 293.695146,181.481598 273.545025,154.5 C293.695146,127.518402 300.045359,100.678533 287.690017,80.75 Z M225.272338,67.6699565 C249.15004,67.6699565 267.625996,74.0490109 275.757657,87.1630435 C284.718202,101.61612 279.677938,122.111565 264.618647,143.543957 C254.183984,131.912312 242.504758,121.316526 229.764569,111.923163 C227.405933,96.9297319 223.407129,82.204341 217.831526,67.9803478 C220.331841,67.852087 222.875889,67.6699565 225.272338,67.6699565 L225.272338,67.6699565 Z M184.937246,210.038239 C173.843839,215.985548 162.337258,221.226757 150.495217,225.726467 C138.656244,221.226802 127.152842,215.985585 116.062754,210.038239 C104.994848,204.073421 94.3673209,197.416169 84.2522402,190.11163 C80.7508424,166.48425 80.7508424,142.51575 84.2522402,118.88837 C104.491371,104.230671 126.783521,92.2565712 150.501367,83.3030326 C174.217958,92.257363 196.509093,104.231412 216.74776,118.88837 C218.483035,130.689246 219.360412,142.587288 219.373808,154.5 C219.360412,166.412712 218.483035,178.310754 216.74776,190.11163 C206.632679,197.416169 196.005152,204.073421 184.937246,210.038239 L184.937246,210.038239 Z M213.355695,208.364435 C210.947768,219.063208 207.601713,229.556895 203.351701,239.738326 C191.748279,238.073365 180.308928,235.522775 169.147472,232.111935 C176.689417,228.78613 184.25733,225.215989 191.824558,221.148196 C199.382904,217.08425 206.497766,212.778533 213.355695,208.364435 L213.355695,208.364435 Z M131.845695,232.10937 C120.685707,235.519218 109.247975,238.069161 97.6462487,239.733837 C93.3970214,229.553856 90.0516509,219.061669 87.6443048,208.364435 C94.502234,212.778533 101.617096,217.08425 109.175442,221.148196 C116.74062,225.214707 124.305799,228.784207 131.845695,232.10937 L131.845695,232.10937 Z M68.8758829,178.165413 C60.1757811,170.906679 52.1233773,162.991781 44.7993308,154.5 C52.1233773,146.008219 60.1757811,138.093321 68.8758829,130.834587 C68.2082666,138.52575 67.8508835,146.424054 67.8508835,154.5 C67.8508835,162.575946 68.2082666,170.47425 68.8758829,178.165413 L68.8758829,178.165413 Z M87.6443048,100.635565 C90.0460264,89.9613264 93.3810458,79.4910103 97.6154988,69.3309348 C109.201845,70.9779754 120.625187,73.5118842 131.771211,76.9073043 C124.256599,80.2241304 116.715337,83.7987609 109.175442,87.8518043 C101.617096,91.91575 94.502234,96.2214674 87.6443048,100.635565 L87.6443048,100.635565 Z M169.229472,76.9079457 C180.375362,73.5127042 191.798443,70.9785883 203.384501,69.3309348 C207.618954,79.4910103 210.953974,89.9613264 213.355695,100.635565 C206.497766,96.2214674 199.382904,91.91575 191.824558,87.8518043 C184.285346,83.7994022 176.743401,80.2241304 169.229472,76.9079457 L169.229472,76.9079457 Z M232.124117,130.834587 C240.824219,138.093321 248.876623,146.008219 256.200669,154.5 C248.876623,162.991781 240.824219,170.906679 232.124117,178.165413 C232.791733,170.47425 233.149117,162.575946 233.149117,154.5 C233.149117,146.424054 232.791733,138.52575 232.124117,130.834587 L232.124117,130.834587 Z M150.5,19.826087 C168.425872,19.826087 184.968679,34.1387174 197.373222,56.9986522 C181.343228,59.5941817 165.637256,63.7179614 150.499317,69.3059239 C135.362047,63.7180595 119.656766,59.5942807 103.627462,56.9986522 C116.031321,34.1387174 132.574128,19.826087 150.5,19.826087 L150.5,19.826087 Z M25.2423427,87.1630435 C33.3740044,74.0458043 51.8499599,67.6699565 75.727662,67.6699565 C78.1241106,67.6699565 80.6681591,67.852087 83.1684742,67.9803478 C77.5928713,82.204341 73.594067,96.9297319 71.2354314,111.923163 C58.4952415,121.316526 46.8160164,131.912312 36.3813526,143.543957 C21.3220617,122.111565 16.2817981,101.61612 25.2423427,87.1630435 L25.2423427,87.1630435 Z M25.2423427,221.836957 C16.2817981,207.38388 21.3220617,186.888435 36.3813526,165.456043 C46.8160164,177.087688 58.4952415,187.683474 71.2354314,197.076837 C73.5948812,212.079712 77.5973975,226.814091 83.1794075,241.045946 C55.7470075,242.45938 34.1933206,236.274641 25.2423427,221.836957 L25.2423427,221.836957 Z M150.5,289.173913 C132.587794,289.173913 116.056604,274.882446 103.655478,252.052011 C119.677164,249.413042 135.372009,245.254454 150.498633,239.640207 C165.625865,245.254877 181.321412,249.413683 197.343838,252.052652 C184.943396,274.882446 168.411522,289.173913 150.5,289.173913 L150.5,289.173913 Z M275.757657,221.836957 C266.804629,236.279772 245.249576,242.464511 217.818542,241.051076 C223.401409,226.817578 227.404612,212.081481 229.764569,197.076837 C242.504758,187.683474 254.183984,177.087688 264.618647,165.456043 C279.677938,186.888435 284.718202,207.38388 275.757657,221.836957 L275.757657,221.836957 Z" id="形状" fill-opacity="0.320895523" fill="#1D89E7"></path>
                <path d="M194.688056,119.729646 L160.811944,101.559072 C154.427768,98.1469762 146.572232,98.1469762 140.188056,101.559072 L106.311944,119.729646 C99.9394524,123.162166 96.011923,129.483886 96,136.327669 L96,172.673929 C96.011923,179.517713 99.9394524,185.839433 106.311944,189.271952 L140.188056,207.442527 C146.572844,210.852491 154.427156,210.852491 160.811944,207.442527 L194.688056,189.271952 C201.060548,185.839433 204.988077,179.517713 205,172.673929 L205,136.327669 C204.988077,129.483886 201.060548,123.162166 194.688056,119.729646 L194.688056,119.729646 Z M150.5,180.049977 C135.312988,180.049977 123.001482,168.61122 123.001482,154.500799 C123.001482,140.390378 135.312988,128.951622 150.5,128.951622 C165.687012,128.951622 177.998518,140.390378 177.998518,154.500799 C177.982528,168.605062 165.680384,180.03512 150.5,180.049977 Z" id="形状" fill-opacity="0.320895523" fill="#1D89E7"></path>
            </g>
            <g id="编组">
                <path d="M57.5714286,279.813559 L57.5714286,86.1864407 C57.5714286,46.8715932 89.5507143,15 129,15 L85.4285714,15 C45.9792857,15 14,46.8715932 14,86.1864407 L14,279.813559 C14,319.129119 45.9792857,351 85.4285714,351 L129,351 C89.5507143,351 57.5714286,319.129119 57.5714286,279.813559 Z" id="路径" fill="#CEE1F2"></path>
                <path d="M279.453125,365 L85.546875,365 C38.3763281,365 0,326.623672 0,279.453125 L0,85.546875 C0,38.3763281 38.3763281,0 85.546875,0 L279.453125,0 C326.623672,0 365,38.3763281 365,85.546875 L365,279.453125 C365,326.623672 326.623672,365 279.453125,365 Z M85.546875,28.515625 C54.0998438,28.515625 28.515625,54.0998438 28.515625,85.546875 L28.515625,279.453125 C28.515625,310.900156 54.0998438,336.484375 85.546875,336.484375 L279.453125,336.484375 C310.900156,336.484375 336.484375,310.900156 336.484375,279.453125 L336.484375,85.546875 C336.484375,54.0998438 310.900156,28.515625 279.453125,28.515625 L85.546875,28.515625 Z M184.387021,306.539404 C199.92875,306.306289 212.101357,294.5329 214.004775,277.900449 L218.875957,236.937754 C219.805566,229.118057 214.220781,222.026221 206.401084,221.095898 C198.586377,220.16415 191.489551,225.751074 190.559229,233.570771 L185.684482,274.564834 C185.681631,274.591924 185.678066,274.618301 185.675215,274.645391 C185.451367,276.625088 184.744893,278.015938 183.958574,278.028057 C183.112373,278.017363 182.489307,276.4875 182.237656,274.966904 L162.692334,89.164082 C162.68877,89.1270117 162.684492,89.0899414 162.680215,89.0528711 C161.01918,74.3708887 149.543066,63.8457715 134.772686,63.4586719 C120.005869,63.0444824 107.989385,72.9786133 105.559854,87.5536621 C105.512803,87.8381055 105.473594,88.1246875 105.443652,88.4112695 L94.3154297,194.583496 C94.1742773,195.229375 93.8256738,195.984326 92.3464258,196.042783 C90.6811133,196.10623 90.3759961,195.18375 90.2063281,194.51292 L85.1768848,172.858867 C83.3953711,165.188164 75.7325098,160.413223 68.0632324,162.196162 C60.3932422,163.977676 55.6190137,171.639824 57.4005273,179.309814 L62.4570605,201.08292 C62.473457,201.154209 62.4905664,201.226211 62.5083887,201.296787 C66.0528809,215.556025 78.7672852,225.108047 93.4642383,224.536309 C108.146221,223.95958 120.087852,213.434463 122.503125,198.941396 C122.550176,198.656953 122.589385,198.370371 122.619326,198.083789 L133.739707,91.9885547 C133.74042,91.986416 133.74042,91.9835645 133.741133,91.9814258 C133.911514,91.9521973 134.134648,91.9579004 134.303604,91.9963965 C134.316436,92.0562793 134.329268,92.1318457 134.340674,92.2238086 L153.913086,278.278994 C153.931621,278.45793 153.954434,278.636865 153.979385,278.815088 C156.334775,295.207295 168.610752,306.544395 183.919365,306.544395 C184.074775,306.544395 184.232324,306.544395 184.387021,306.539404 L184.387021,306.539404 Z" id="形状" fill="#1428BF"></path>
                <path d="M272.843728,225 C272.426244,225 272.007335,224.991482 271.586289,224.975155 C256.95868,224.402291 245.053265,213.983547 242.58897,199.619353 L231.428757,138.895762 C231.414508,138.821226 231.402397,138.74669 231.389573,138.672154 C231.371763,138.564963 231.351815,138.479779 231.334716,138.413052 C231.16587,138.383947 230.942168,138.390336 230.773322,138.427959 C230.759073,138.495396 230.744824,138.582 230.732001,138.6899 C230.729151,138.716875 230.725589,138.74314 230.722739,138.770116 L225.399463,183.374717 C224.470455,191.160558 217.382491,196.725219 209.567848,195.796 C201.753205,194.870332 196.17203,187.807848 197.101038,180.021297 L202.421464,135.44509 C204.102799,120.853029 215.562232,110.397372 230.305255,110.011204 C245.024055,109.621486 257.001426,119.434711 259.477119,133.87841 L270.635908,194.597742 C270.650156,194.672278 270.662267,194.746814 270.675091,194.821351 C270.78908,195.503534 270.961488,196.534974 272.704091,196.603121 C274.351229,196.66275 274.673247,195.749149 274.842806,195.081163 L279.868998,173.51748 C281.648648,165.880002 289.303706,161.124592 296.971588,162.899264 C304.636621,164.673226 309.407763,172.302185 307.627401,179.939662 L302.574137,201.620473 C302.557751,201.69217 302.540652,201.763157 302.522842,201.834144 C299.082518,215.626893 286.981185,225 272.843728,225 L272.843728,225 Z" id="路径" fill="#DF5CF0"></path>
            </g>
            <path d="M132,499 L106.604159,499 L107.411703,478.055556 L85.0789566,478.055556 L78.5350723,499 L53,499 L87.3623546,403 L131.47092,403 L132,499 Z M110,426 L101.558651,426 L91,460 L108.52346,460 L110,426 Z M168.624958,471.748102 L168.624958,471.748102 C168.624958,477.889795 173.0434,480.960641 181.880284,480.960641 C190.698681,480.960641 195.10788,478.205229 195.10788,472.694405 L195.10788,472.694405 C195.10788,469.744166 193.601172,467.332021 190.587758,465.45797 C187.574343,463.602474 183.913877,462.043857 179.606358,460.78212 C175.298839,459.538937 170.99132,458.09165 166.683801,456.440259 C162.394769,454.807422 158.734303,452.228282 155.702401,448.702839 C152.688987,445.177397 151.182279,440.789148 151.182279,435.538094 L151.182279,435.538094 C151.182279,413.179365 165.519107,402 194.192763,402 L194.192763,402 C204.656521,402 212.569045,403.985381 217.930335,407.956143 C223.310112,411.926905 226,417.428451 226,424.460782 L226,424.460782 C226,427.039921 225.66723,429.507731 225.001691,431.864211 C224.336152,434.220692 223.642881,435.890638 222.92188,436.874051 L222.92188,436.874051 L221.86811,438.488333 L198.296923,438.488333 C200.256566,436.428732 201.236388,433.840315 201.236388,430.723081 L201.236388,430.723081 C201.236388,424.933933 197.464998,422.039359 189.922218,422.039359 L189.922218,422.039359 C180.419795,422.039359 175.668583,425.073095 175.668583,431.140568 L175.668583,431.140568 C175.668583,434.165027 177.184534,436.567894 180.216436,438.349171 C183.22985,440.130447 186.890317,441.531347 191.197836,442.55187 C195.486867,443.572392 199.812873,444.843407 204.175854,446.364914 C208.520347,447.886421 212.199301,450.400618 215.212716,453.907506 C218.22613,457.432949 219.732837,461.99747 219.732837,467.601068 L219.732837,467.601068 C219.732837,478.919595 216.358922,487.315715 209.611092,492.789429 C202.88175,498.263143 192.501184,501 178.469395,501 C164.456093,501 154.870477,498.504358 149.712546,493.513073 L149.712546,493.513073 C145.904182,489.783525 144,484.625246 144,478.038234 L144,478.038234 C144,475.533315 144.268064,472.815013 144.804193,469.883329 L144.804193,469.883329 L145.192425,467.740231 L169.151843,467.740231 L168.902266,469.354512 C168.717394,470.24515 168.624958,471.043014 168.624958,471.748102 Z M246.944444,403 L285.611111,403 C295.740741,403 302.935185,405.222222 307.194444,409.666667 C310.398148,413.037037 312,417.305556 312,422.472222 C312,424.25 311.824074,426.111111 311.472222,428.055556 L309.611111,438.472222 C308.537037,444.25 306.694444,448.916667 304.083333,452.472222 C301.453704,456.027778 298.537037,458.555556 295.333333,460.055556 L307.472222,499 L280.527778,499 L269.333333,463.138889 L261.083333,463.138889 L255.611111,499 L230,499 L246.944444,403 Z M277.12947,424 L277.12947,424 L267.363748,424 L264,447 L273.114673,447 C277.708179,447 280.999589,445.87984 282.988903,443.639521 C284.996301,441.380838 286,438.405988 286,434.71497 L286,434.71497 C286,427.571657 283.043157,424 277.12947,424 Z" id="形状" fill="#A745B4"></path>
        </g>
    </g>
</svg>